<svg xmlns="http://www.w3.org/2000/svg" viewBox="0 0 600 300" fill="none">
<circle cx="30" cy="30" r="1.8" fill="#7C7C78"/><circle cx="60" cy="30" r="1.8" fill="#7C7C78"/><circle cx="90" cy="30" r="1.8" fill="#7C7C78"/><circle cx="120" cy="30" r="1.8" fill="#7C7C78"/><circle cx="150" cy="30" r="1.8" fill="#7C7C78"/><circle cx="180" cy="30" r="1.8" fill="#7C7C78"/><circle cx="210" cy="30" r="1.8" fill="#7C7C78"/><circle cx="240" cy="30" r="1.8" fill="#7C7C78"/><circle cx="270" cy="30" r="1.8" fill="#7C7C78"/><circle cx="300" cy="30" r="1.8" fill="#7C7C78"/><circle cx="330" cy="30" r="1.8" fill="#7C7C78"/><circle cx="360" cy="30" r="1.8" fill="#7C7C78"/><circle cx="390" cy="30" r="1.8" fill="#7C7C78"/><circle cx="420" cy="30" r="1.8" fill="#7C7C78"/><circle cx="450" cy="30" r="1.8" fill="#7C7C78"/><circle cx="480" cy="30" r="1.8" fill="#7C7C78"/><circle cx="510" cy="30" r="1.8" fill="#7C7C78"/><circle cx="540" cy="30" r="1.8" fill="#7C7C78"/><circle cx="570" cy="30" r="1.8" fill="#7C7C78"/><circle cx="30" cy="60" r="1.8" fill="#7C7C78"/><circle cx="60" cy="60" r="1.8" fill="#7C7C78"/><circle cx="90" cy="60" r="1.8" fill="#7C7C78"/><circle cx="120" cy="60" r="1.8" fill="#7C7C78"/><circle cx="150" cy="60" r="1.8" fill="#7C7C78"/><circle cx="180" cy="60" r="1.8" fill="#7C7C78"/><circle cx="210" cy="60" r="1.8" fill="#7C7C78"/><circle cx="240" cy="60" r="1.8" fill="#7C7C78"/><circle cx="270" cy="60" r="1.8" fill="#7C7C78"/><circle cx="300" cy="60" r="1.8" fill="#7C7C78"/><circle cx="330" cy="60" r="1.8" fill="#7C7C78"/><circle cx="360" cy="60" r="1.8" fill="#7C7C78"/><circle cx="390" cy="60" r="1.8" fill="#7C7C78"/><circle cx="420" cy="60" r="1.8" fill="#7C7C78"/><circle cx="450" cy="60" r="1.8" fill="#7C7C78"/><circle cx="480" cy="60" r="1.8" fill="#7C7C78"/><circle cx="510" cy="60" r="1.8" fill="#7C7C78"/><circle cx="540" cy="60" r="1.8" fill="#7C7C78"/><circle cx="570" cy="60" r="1.8" fill="#7C7C78"/><circle cx="30" cy="90" r="1.8" fill="#7C7C78"/><circle cx="60" cy="90" r="1.8" fill="#7C7C78"/><circle cx="90" cy="90" r="1.8" fill="#7C7C78"/><circle cx="120" cy="90" r="1.8" fill="#7C7C78"/><circle cx="150" cy="90" r="1.8" fill="#7C7C78"/><circle cx="180" cy="90" r="1.8" fill="#7C7C78"/><circle cx="210" cy="90" r="1.8" fill="#7C7C78"/><circle cx="240" cy="90" r="1.8" fill="#7C7C78"/><circle cx="270" cy="90" r="1.8" fill="#7C7C78"/><circle cx="300" cy="90" r="1.8" fill="#7C7C78"/><circle cx="330" cy="90" r="1.8" fill="#7C7C78"/><circle cx="360" cy="90" r="1.8" fill="#7C7C78"/><circle cx="390" cy="90" r="1.8" fill="#7C7C78"/><circle cx="420" cy="90" r="1.8" fill="#7C7C78"/><circle cx="450" cy="90" r="1.8" fill="#7C7C78"/><circle cx="480" cy="90" r="1.8" fill="#7C7C78"/><circle cx="510" cy="90" r="1.8" fill="#7C7C78"/><circle cx="540" cy="90" r="1.8" fill="#7C7C78"/><circle cx="570" cy="90" r="1.8" fill="#7C7C78"/><circle cx="30" cy="120" r="1.8" fill="#7C7C78"/><circle cx="60" cy="120" r="1.8" fill="#7C7C78"/><circle cx="90" cy="120" r="1.8" fill="#7C7C78"/><circle cx="120" cy="120" r="1.8" fill="#7C7C78"/><circle cx="150" cy="120" r="1.8" fill="#7C7C78"/><circle cx="180" cy="120" r="1.8" fill="#7C7C78"/><circle cx="210" cy="120" r="1.8" fill="#7C7C78"/><circle cx="240" cy="120" r="1.8" fill="#7C7C78"/><circle cx="270" cy="120" r="1.8" fill="#7C7C78"/><circle cx="300" cy="120" r="1.8" fill="#7C7C78"/><circle cx="330" cy="120" r="1.8" fill="#7C7C78"/><circle cx="360" cy="120" r="1.8" fill="#7C7C78"/><circle cx="390" cy="120" r="1.8" fill="#7C7C78"/><circle cx="420" cy="120" r="1.8" fill="#7C7C78"/><circle cx="450" cy="120" r="1.8" fill="#7C7C78"/><circle cx="480" cy="120" r="1.8" fill="#7C7C78"/><circle cx="510" cy="120" r="1.8" fill="#7C7C78"/><circle cx="540" cy="120" r="1.8" fill="#7C7C78"/><circle cx="570" cy="120" r="1.8" fill="#7C7C78"/><circle cx="30" cy="150" r="1.8" fill="#7C7C78"/><circle cx="60" cy="150" r="1.8" fill="#7C7C78"/><circle cx="90" cy="150" r="1.8" fill="#7C7C78"/><circle cx="120" cy="150" r="1.8" fill="#7C7C78"/><circle cx="150" cy="150" r="1.8" fill="#7C7C78"/><circle cx="180" cy="150" r="1.8" fill="#7C7C78"/><circle cx="210" cy="150" r="1.8" fill="#7C7C78"/><circle cx="240" cy="150" r="1.8" fill="#7C7C78"/><circle cx="270" cy="150" r="1.8" fill="#7C7C78"/><circle cx="300" cy="150" r="1.8" fill="#7C7C78"/><circle cx="330" cy="150" r="1.8" fill="#7C7C78"/><circle cx="360" cy="150" r="1.8" fill="#7C7C78"/><circle cx="390" cy="150" r="1.8" fill="#7C7C78"/><circle cx="420" cy="150" r="1.8" fill="#7C7C78"/><circle cx="450" cy="150" r="1.8" fill="#7C7C78"/><circle cx="480" cy="150" r="1.8" fill="#7C7C78"/><circle cx="510" cy="150" r="1.8" fill="#7C7C78"/><circle cx="540" cy="150" r="1.8" fill="#7C7C78"/><circle cx="570" cy="150" r="1.8" fill="#7C7C78"/><circle cx="30" cy="180" r="1.8" fill="#7C7C78"/><circle cx="60" cy="180" r="1.8" fill="#7C7C78"/><circle cx="90" cy="180" r="1.8" fill="#7C7C78"/><circle cx="120" cy="180" r="1.8" fill="#7C7C78"/><circle cx="150" cy="180" r="1.8" fill="#7C7C78"/><circle cx="180" cy="180" r="1.8" fill="#7C7C78"/><circle cx="210" cy="180" r="1.8" fill="#7C7C78"/><circle cx="240" cy="180" r="1.8" fill="#7C7C78"/><circle cx="270" cy="180" r="1.8" fill="#7C7C78"/><circle cx="300" cy="180" r="1.8" fill="#7C7C78"/><circle cx="330" cy="180" r="1.8" fill="#7C7C78"/><circle cx="360" cy="180" r="1.8" fill="#7C7C78"/><circle cx="390" cy="180" r="1.8" fill="#7C7C78"/><circle cx="420" cy="180" r="1.8" fill="#7C7C78"/><circle cx="450" cy="180" r="1.8" fill="#7C7C78"/><circle cx="480" cy="180" r="1.8" fill="#7C7C78"/><circle cx="510" cy="180" r="1.8" fill="#7C7C78"/><circle cx="540" cy="180" r="1.8" fill="#7C7C78"/><circle cx="570" cy="180" r="1.8" fill="#7C7C78"/><circle cx="30" cy="210" r="1.8" fill="#7C7C78"/><circle cx="60" cy="210" r="1.8" fill="#7C7C78"/><circle cx="90" cy="210" r="1.8" fill="#7C7C78"/><circle cx="120" cy="210" r="1.8" fill="#7C7C78"/><circle cx="150" cy="210" r="1.8" fill="#7C7C78"/><circle cx="180" cy="210" r="1.8" fill="#7C7C78"/><circle cx="210" cy="210" r="1.8" fill="#7C7C78"/><circle cx="240" cy="210" r="1.8" fill="#7C7C78"/><circle cx="270" cy="210" r="1.8" fill="#7C7C78"/><circle cx="300" cy="210" r="1.8" fill="#7C7C78"/><circle cx="330" cy="210" r="1.8" fill="#7C7C78"/><circle cx="360" cy="210" r="1.8" fill="#7C7C78"/><circle cx="390" cy="210" r="1.8" fill="#7C7C78"/><circle cx="420" cy="210" r="1.8" fill="#7C7C78"/><circle cx="450" cy="210" r="1.8" fill="#7C7C78"/><circle cx="480" cy="210" r="1.8" fill="#7C7C78"/><circle cx="510" cy="210" r="1.8" fill="#7C7C78"/><circle cx="540" cy="210" r="1.8" fill="#7C7C78"/><circle cx="570" cy="210" r="1.8" fill="#7C7C78"/><circle cx="30" cy="240" r="1.8" fill="#7C7C78"/><circle cx="60" cy="240" r="1.8" fill="#7C7C78"/><circle cx="90" cy="240" r="1.8" fill="#7C7C78"/><circle cx="120" cy="240" r="1.8" fill="#7C7C78"/><circle cx="150" cy="240" r="1.8" fill="#7C7C78"/><circle cx="180" cy="240" r="1.8" fill="#7C7C78"/><circle cx="210" cy="240" r="1.8" fill="#7C7C78"/><circle cx="240" cy="240" r="1.8" fill="#7C7C78"/><circle cx="270" cy="240" r="1.8" fill="#7C7C78"/><circle cx="300" cy="240" r="1.8" fill="#7C7C78"/><circle cx="330" cy="240" r="1.8" fill="#7C7C78"/><circle cx="360" cy="240" r="1.8" fill="#7C7C78"/><circle cx="390" cy="240" r="1.8" fill="#7C7C78"/><circle cx="420" cy="240" r="1.8" fill="#7C7C78"/><circle cx="450" cy="240" r="1.8" fill="#7C7C78"/><circle cx="480" cy="240" r="1.8" fill="#7C7C78"/><circle cx="510" cy="240" r="1.8" fill="#7C7C78"/><circle cx="540" cy="240" r="1.8" fill="#7C7C78"/><circle cx="570" cy="240" r="1.8" fill="#7C7C78"/><circle cx="30" cy="270" r="1.8" fill="#7C7C78"/><circle cx="60" cy="270" r="1.8" fill="#7C7C78"/><circle cx="90" cy="270" r="1.8" fill="#7C7C78"/><circle cx="120" cy="270" r="1.8" fill="#7C7C78"/><circle cx="150" cy="270" r="1.8" fill="#7C7C78"/><circle cx="180" cy="270" r="1.8" fill="#7C7C78"/><circle cx="210" cy="270" r="1.8" fill="#7C7C78"/><circle cx="240" cy="270" r="1.8" fill="#7C7C78"/><circle cx="270" cy="270" r="1.8" fill="#7C7C78"/><circle cx="300" cy="270" r="1.8" fill="#7C7C78"/><circle cx="330" cy="270" r="1.8" fill="#7C7C78"/><circle cx="360" cy="270" r="1.8" fill="#7C7C78"/><circle cx="390" cy="270" r="1.8" fill="#7C7C78"/><circle cx="420" cy="270" r="1.8" fill="#7C7C78"/><circle cx="450" cy="270" r="1.8" fill="#7C7C78"/><circle cx="480" cy="270" r="1.8" fill="#7C7C78"/><circle cx="510" cy="270" r="1.8" fill="#7C7C78"/><circle cx="540" cy="270" r="1.8" fill="#7C7C78"/><circle cx="570" cy="270" r="1.8" fill="#7C7C78"/>
</svg>